<svg id="Layer_1" data-name="Layer 1" xmlns="http://www.w3.org/2000/svg" xmlns:xlink="http://www.w3.org/1999/xlink" viewBox="0 0 886.33 530.33"><defs><style>.cls-1,.cls-3,.cls-5,.cls-7,.cls-8{fill:none;}.cls-2{clip-path:url(#clip-path);}.cls-3{opacity:0;}.cls-4{clip-path:url(#clip-path-2);}.cls-5{stroke:#d9d9d9;}.cls-12,.cls-5,.cls-7,.cls-8{stroke-linejoin:round;}.cls-6{clip-path:url(#clip-path-3);}.cls-7{stroke:#5b9bd5;}.cls-12,.cls-7,.cls-8{stroke-linecap:round;stroke-width:5px;}.cls-12,.cls-8{stroke:#1def31;}.cls-11,.cls-13,.cls-9{font-size:22.1px;font-family:Futura-Medium, Futura;}.cls-10,.cls-11,.cls-13,.cls-9{fill:#595959;}.cls-10{font-size:34.37px;font-family:Futura-MediumItalic, Futura;font-style:italic;letter-spacing:-0.01em;}.cls-11{letter-spacing:-0.06em;}.cls-12{fill:#1def31;}.cls-13{letter-spacing:-0.06em;}</style><clipPath id="clip-path" transform="translate(-235.61 -206.03)"><rect class="cls-1" x="235.61" y="206.03" width="886.33" height="530.33"/></clipPath><clipPath id="clip-path-2" transform="translate(-235.61 -206.03)"><rect class="cls-1" x="235.61" y="206.03" width="883.88" height="530.33"/></clipPath><clipPath id="clip-path-3" transform="translate(-235.61 -206.03)"><rect class="cls-1" x="321.55" y="304.24" width="768.48" height="309.36"/></clipPath></defs><title>accident_human_factor_chart</title><g class="cls-2"><rect class="cls-3" width="886.33" height="530.33"/><rect class="cls-1" x="2.46" width="881.42" height="530.33"/></g><g class="cls-4"><line class="cls-5" x1="87.16" y1="406.34" x2="853.19" y2="406.34"/></g><g class="cls-6"><polyline class="cls-7" points="125.22 144.86 203.78 171.87 279.89 189.05 356.01 238.16 432.12 240.61 508.23 228.34 584.34 252.89 662.91 245.52 739.02 243.07 815.13 238.16"/></g><g class="cls-6"><polyline class="cls-8" points="125.22 314.27 203.78 314.27 279.89 326.54 356.01 348.64 432.12 348.64 508.23 341.27 584.34 348.64 662.91 343.73 739.02 341.27 815.13 341.27"/></g><g class="cls-4"><text class="cls-9" transform="translate(54.06 415.6)">0</text></g><g class="cls-4"><text class="cls-9" transform="translate(29.5 371.8)">500</text></g><g class="cls-4"><text class="cls-9" transform="translate(18.44 328.01)">1000</text></g><g class="cls-4"><text class="cls-9" transform="translate(18.44 284.21)">1500</text></g><g class="cls-4"><text class="cls-9" transform="translate(18.44 240.42)">2000</text></g><g class="cls-4"><text class="cls-9" transform="translate(18.44 196.62)">2500</text></g><g class="cls-4"><text class="cls-9" transform="translate(18.44 152.83)">3000</text></g><g class="cls-4"><text class="cls-9" transform="translate(18.44 109.03)">3500</text></g><g class="cls-4"><text class="cls-9" transform="translate(112.13 443.62)">2006</text></g><g class="cls-4"><text class="cls-9" transform="translate(196.42 443.16)">2007</text></g><g class="cls-4"><text class="cls-9" transform="translate(272.94 443.16)">2008</text></g><g class="cls-4"><text class="cls-9" transform="translate(349.46 443.16)">2009</text></g><g class="cls-4"><text class="cls-9" transform="translate(425.98 443.16)">2010</text></g><g class="cls-4"><text class="cls-9" transform="translate(502.5 443.16)">2011</text></g><g class="cls-4"><text class="cls-9" transform="translate(579.02 443.16)">2012</text></g><g class="cls-4"><text class="cls-9" transform="translate(655.54 443.16)">2013</text></g><g class="cls-4"><text class="cls-9" transform="translate(732.06 443.16)">2014</text></g><g class="cls-4"><text class="cls-9" transform="translate(801.22 443.16)">2015</text></g><g class="cls-4"><text class="cls-10" transform="translate(138.96 34.56)">Number of Train Accidents vs Accidents<tspan x="112.7" y="41.25">Caused by Human Error </tspan></text></g><g class="cls-4"><line class="cls-7" x1="169.41" y1="488.59" x2="216.06" y2="488.59"/></g><g class="cls-4"><text class="cls-11" transform="translate(221.72 496.57)">Train Accidents</text></g><g class="cls-4"><line class="cls-12" x1="464.04" y1="488.59" x2="510.68" y2="488.59"/></g><g class="cls-4"><text class="cls-13" transform="translate(515.99 496.57)">Accidents Caused by Human Error</text></g><g class="cls-2"><rect class="cls-1" x="1.23" y="1.23" width="883.88" height="527.87"/></g></svg>