<svg id="Layer_1" data-name="Layer 1" xmlns="http://www.w3.org/2000/svg" viewBox="0 0 1241.51 1006.85"><defs><style>.cls-1{opacity:0.1;}.cls-13,.cls-2,.cls-23{fill:#fff;}.cls-3{fill:tan;}.cls-4{font-size:100px;font-family:Ministry-BoldItalic, Ministry;font-weight:700;}.cls-12,.cls-13,.cls-15,.cls-23,.cls-27,.cls-30,.cls-34,.cls-38,.cls-39,.cls-4,.cls-40{font-style:italic;}.cls-5{letter-spacing:-0.05em;}.cls-6{letter-spacing:-0.02em;}.cls-7{letter-spacing:0em;}.cls-8{letter-spacing:-0.02em;}.cls-9{letter-spacing:-0.02em;}.cls-10{fill:#46e02b;}.cls-11{fill:#1010c6;}.cls-12{font-size:32.49px;letter-spacing:0.02em;}.cls-12,.cls-15{fill:#595959;}.cls-12,.cls-13,.cls-15,.cls-23,.cls-27,.cls-30,.cls-34,.cls-38,.cls-39,.cls-40{font-family:FranklinGothic-MediumItalic, Franklin Gothic Medium;}.cls-13{font-size:48px;}.cls-14{fill:none;stroke:#fff;stroke-linejoin:round;stroke-width:2px;}.cls-15,.cls-23,.cls-27{font-size:36px;}.cls-16{letter-spacing:-0.02em;}.cls-17{letter-spacing:-0.01em;}.cls-18{letter-spacing:0.01em;}.cls-19{letter-spacing:0em;}.cls-20{letter-spacing:-0.02em;}.cls-21{letter-spacing:0em;}.cls-22{letter-spacing:-0.01em;}.cls-24{letter-spacing:-0.05em;}.cls-25{letter-spacing:-0.05em;}.cls-26{fill:#b7b6b6;}.cls-28{letter-spacing:-0.05em;}.cls-29,.cls-33{fill:#ff0;}.cls-29{stroke:#000;stroke-miterlimit:10;}.cls-30{font-size:73.46px;}.cls-31{letter-spacing:-0.03em;}.cls-32{letter-spacing:0.01em;}.cls-34{font-size:61.5px;letter-spacing:-0.04em;}.cls-35{letter-spacing:-0.05em;}.cls-36{letter-spacing:-0.05em;}.cls-37{letter-spacing:0em;}.cls-38{font-size:102.5px;}.cls-39{font-size:61.13px;}.cls-40{font-size:35.87px;}.cls-41{letter-spacing:-0.03em;}.cls-42{letter-spacing:0em;}</style></defs><title>track stats</title><g class="cls-1"><path d="M1267.61,880.55H314c-45.41,0-99.08-84.09-99.08-138.5,0-94,4.13-188,4.13-277,12.39-103.88,45.41-197.86,78.44-291.84,8.26-19.79,20.64-39.57,41.28-39.57H681.39c33,14.84,66.05,29.68,78.44,74.2C858.91,499.67,1057.07,638.17,1280,687.64V865.71C1280,870.66,1271.74,880.55,1267.61,880.55Z" transform="translate(-38.49 -17.15)"/><path class="cls-2" d="M280.94,385.9H714.42c12.39,0,16.51-29.68,8.26-44.52C710.29,291.92,689.65,193,669,193H334.61c-20.64,0-41.28,98.93-61.93,148.4C268.56,361.17,272.69,385.9,280.94,385.9Z" transform="translate(-38.49 -17.15)"/><path id="lamp" class="cls-2" d="M351.12,633.23c0,29.68-16.51,49.47-37.16,49.47s-41.28-19.79-41.28-49.47c0-24.73,20.64-44.52,41.28-44.52S351.12,608.49,351.12,633.23Z" transform="translate(-38.49 -17.15)"/><path class="cls-2" d="M681.39,633.23c0,29.68-16.51,49.47-37.16,49.47S603,662.91,603,633.23c0-24.73,20.64-44.52,41.28-44.52S681.39,608.49,681.39,633.23Z" transform="translate(-38.49 -17.15)"/><path class="cls-2" d="M871.29,494.72V667.85l-66.05-39.57C801.11,559,797,484.83,797,410.63,821.75,435.37,850.65,474.94,871.29,494.72Z" transform="translate(-38.49 -17.15)"/><path class="cls-2" d="M970.37,588.71l4.13,133.56-66.05-34.63V534.3C937.35,564,949.73,568.92,970.37,588.71Z" transform="translate(-38.49 -17.15)"/><path class="cls-2" d="M1003.4,613.44V732.16c20.64,9.89,41.28,14.84,61.93,19.79V643.12Z" transform="translate(-38.49 -17.15)"/><path class="cls-2" d="M1090.1,658V761.84c16.51,4.95,33,9.89,49.54,9.89V672.8Z" transform="translate(-38.49 -17.15)"/><path class="cls-2" d="M1164.41,682.69v94c12.39,4.95,28.9,4.95,41.28,4.95v-89Z" transform="translate(-38.49 -17.15)"/><path class="cls-2" d="M1226.33,697.53v89l33,4.95v-89Z" transform="translate(-38.49 -17.15)"/><path d="M214.89,954.75h82.57V905.28H421.31v49.47H603V905.28h677v49.47c-189.9,4.95-383.94,14.84-487.14,69.25h-578Z" transform="translate(-38.49 -17.15)"/></g><rect class="cls-3" x="570.91" y="707.23" width="299.05" height="40.27"/><text class="cls-4" transform="translate(184.57 85)">Quick <tspan class="cls-5" x="287.29" y="0">T</tspan><tspan class="cls-6" x="336.59" y="0">r</tspan><tspan class="cls-7" x="382.09" y="0">ack S</tspan><tspan class="cls-8" x="628.69" y="0">t</tspan><tspan x="669.09" y="0">a</tspan><tspan class="cls-9" x="727.99" y="0">t</tspan><tspan x="769.19" y="0">s</tspan></text><path class="cls-10" d="M207.83,249.17c73.19,0,136.06,53.63,149.78,127.77L207.83,406.41Z" transform="translate(-38.49 -17.15)"/><path class="cls-11" d="M351.08,383.44c15.78,85.3-38.49,167.64-121.2,183.92S67.3,527.67,51.52,442.37,90,274.72,172.73,258.45a148,148,0,0,1,28.57-2.78V412.9Z" transform="translate(-38.49 -17.15)"/><text class="cls-12" transform="translate(51.76 155.61) scale(0.97 1)">Passenger Rail Miles <tspan x="-53.38" y="38.99">Equipped with PTC Operation</tspan></text><text x="-38.49" y="-17.15"></text><text class="cls-13" transform="translate(185.58 328.91)">22%</text><path class="cls-10" d="M210,697.6a148.82,148.82,0,0,1,79.74,23.17L210,846.42Z" transform="translate(-38.49 -17.15)"/><path class="cls-11" d="M284.71,735A148.82,148.82,0,1,1,205,711.83V860.65Z" transform="translate(-38.49 -17.15)"/><path class="cls-14" d="M-66.26,476.06" transform="translate(-38.49 -17.15)"/><path class="cls-14" d="M160.67,137.42" transform="translate(-38.49 -17.15)"/><text class="cls-12" transform="translate(86.2 613.16) scale(0.97 1)">Freight Rail Miles <tspan x="-78.3" y="38.99">Equipped with PTC Operation</tspan></text><text class="cls-13" transform="translate(171.23 734.58)">9%</text><text class="cls-15" transform="translate(649.51 596.29)">H<tspan class="cls-16" x="23.26" y="0">a</tspan><tspan class="cls-17" x="41.99" y="0">v</tspan><tspan x="57.76" y="0">e these </tspan><tspan class="cls-18" x="179.49" y="0">r</tspan><tspan x="192.2" y="0">ail</tspan><tspan class="cls-19" x="229.34" y="0">w</tspan><tspan class="cls-20" x="254.37" y="0">a</tspan><tspan x="272.83" y="0">ys submit</tspan><tspan class="cls-16" x="420.49" y="0">t</tspan><tspan x="431.49" y="0">ed </tspan><tspan x="90.28" y="43.2">a PTC Sa</tspan><tspan class="cls-21" x="226.14" y="43.2">f</tspan><tspan class="cls-22" x="237.3" y="43.2">e</tspan><tspan x="255.83" y="43.2">ty Plan? </tspan></text><text class="cls-23" transform="translate(662.72 739.23)">Amt<tspan class="cls-18" x="63.93" y="0">r</tspan><tspan x="76.64" y="0">ak</tspan></text><rect class="cls-3" x="570.91" y="918.34" width="299.05" height="40.27"/><rect class="cls-3" x="570.91" y="809.13" width="299.05" height="40.27"/><text class="cls-23" transform="translate(650.12 842.5)">NJ <tspan class="cls-24" x="45.86" y="0">T</tspan><tspan class="cls-18" x="60.75" y="0">r</tspan><tspan x="73.46" y="0">ansit</tspan></text><text class="cls-23" transform="translate(676.11 951.94)">SEP<tspan class="cls-25" x="60.71" y="0">T</tspan><tspan x="75.38" y="0">A</tspan></text><rect class="cls-26" x="620.67" y="692.71" width="22.23" height="273.13"/><rect class="cls-26" x="810.57" y="692.71" width="22.23" height="273.13"/><line class="cls-3" x1="1044.67" y1="747.51" x2="1039.28" y2="747.51"/><line class="cls-3" x1="1051.61" y1="747.51" x2="1044.67" y2="747.51"/><line class="cls-3" x1="1053.48" y1="747.51" x2="1051.61" y2="747.51"/><polyline class="cls-3" points="1079.2 707.23 1211.1 707.23 1211.1 747.51 1053.48 747.51"/><line class="cls-3" x1="1069.18" y1="707.23" x2="1079.2" y2="707.23"/><line class="cls-3" x1="1064.2" y1="707.23" x2="1069.18" y2="707.23"/><polyline class="cls-3" points="1039.29 747.51 912.04 747.51 912.04 707.23 1064.2 707.23"/><rect class="cls-3" x="912.05" y="918.34" width="299.05" height="40.27"/><line class="cls-3" x1="1069.18" y1="809.13" x2="1087.98" y2="809.13"/><polyline class="cls-3" points="1051.61 849.41 912.04 849.41 912.04 809.13 1069.18 809.13"/><line class="cls-3" x1="1069.18" y1="849.41" x2="1051.61" y2="849.41"/><polyline class="cls-3" points="1087.98 809.13 1211.1 809.13 1211.1 849.41 1069.18 849.41"/><rect class="cls-26" x="961.81" y="692.71" width="22.23" height="273.13"/><rect class="cls-26" x="1151.71" y="692.71" width="22.23" height="273.13"/><text class="cls-27" transform="translate(1040.43 739.23)">No</text><text class="cls-27" transform="translate(1048.04 842.5)">No</text><text class="cls-27" transform="translate(1043.07 951.94)"><tspan class="cls-28">Y</tspan><tspan x="16.96" y="0">es</tspan></text><circle class="cls-29" cx="832.81" cy="339.07" r="207.65"/><rect x="859.3" y="154.4" width="32.4" height="413.18" transform="translate(482.62 -534.35) rotate(45.62)"/><rect x="849.05" y="155.18" width="32.4" height="415.13" transform="translate(1682.7 -38.6) rotate(133.08)"/><text class="cls-30" transform="translate(723.36 208.49)"><tspan class="cls-31">2</tspan><tspan class="cls-32" x="41.18" y="0">1</tspan><tspan x="84.83" y="0">.5 %</tspan></text><rect class="cls-33" x="680.24" y="417.79" width="309.57" height="56.66"/><text class="cls-34" transform="translate(695.65 465.93)">F<tspan class="cls-35" x="27.96" y="0">A</tspan><tspan class="cls-36" x="62.01" y="0">T</tspan><tspan class="cls-37" x="87.05" y="0">ALITIES</tspan></text><text class="cls-38" transform="translate(671.64 381.81)">R</text><rect class="cls-33" x="655.46" y="234.22" width="321.43" height="56.66"/><text class="cls-38" transform="translate(916.43 376.56)">R</text><text class="cls-39" transform="translate(659.38 283.26) scale(1.01 1)">INCREASE IN</text><text class="cls-40" transform="translate(746.6 519.44)">since 2<tspan class="cls-41" x="110.46" y="0">0</tspan><tspan class="cls-42" x="130.34" y="0">13</tspan></text></svg>